<?xml version="1.0" standalone="no"?>
<!DOCTYPE svg PUBLIC "-//W3C//DTD SVG 20010904//EN"
 "http://www.w3.org/TR/2001/REC-SVG-20010904/DTD/svg10.dtd">
<svg version="1.0" xmlns="http://www.w3.org/2000/svg"
 width="64.000000pt" height="64.000000pt" viewBox="0 0 64.000000 64.000000"
 preserveAspectRatio="xMidYMid meet">
<metadata>
Created by potrace 1.10, written by Peter Selinger 2001-2011
</metadata>
<g transform="translate(0.000000,64.000000) scale(0.100000,-0.100000)"
fill="#000000" stroke="none">
<path d="M248 486 c-60 -16 -124 -60 -160 -110 -35 -49 -35 -63 1 -113 63 -87
182 -135 284 -113 104 22 218 126 203 185 -9 36 -88 113 -139 135 -58 26 -133
32 -189 16z m-43 -102 c-14 -26 -25 -55 -25 -64 0 -9 11 -38 25 -64 26 -49 26
-52 -8 -35 -43 22 -87 72 -87 99 0 26 42 75 85 98 34 19 35 14 10 -34z m244
31 c36 -18 81 -71 81 -95 0 -24 -45 -77 -81 -95 -41 -22 -43 -19 -18 21 12 21
22 52 22 74 0 22 -10 53 -22 74 -25 40 -23 43 18 21z m-63 -29 c25 -24 34 -43
34 -66 0 -23 -9 -41 -34 -66 -46 -46 -86 -46 -132 0 -46 46 -46 86 0 132 46
46 86 46 132 0z"/>
<path d="M296 344 c-9 -8 -16 -19 -16 -24 0 -11 29 -40 40 -40 11 0 40 29 40
40 0 11 -29 40 -40 40 -5 0 -16 -7 -24 -16z"/>
</g>
</svg>
